<svg xmlns="http://www.w3.org/2000/svg" version="1.1" xmlns:xlink="http://www.w3.org/1999/xlink" xmlns:svgjs="http://svgjs.dev/svgjs" width="1500" height="1500" viewBox="0 0 1500 1500"><rect width="1500" height="1500" fill="#ffffff"></rect><g transform="matrix(0.6666666666666666,0,0,0.6666666666666666,249.39393939393938,632.8282733884434)"><svg viewBox="0 0 396 93" data-background-color="#ffffff" preserveAspectRatio="xMidYMid meet" height="352" width="1500" xmlns="http://www.w3.org/2000/svg" xmlns:xlink="http://www.w3.org/1999/xlink"><g id="tight-bounds" transform="matrix(1,0,0,1,0.2400000000000091,-0.0640458457041575)"><svg viewBox="0 0 395.52 93.12809169140833" height="93.12809169140833" width="395.52"><g><svg viewBox="0 0 545.8282121505117 128.5192652429974" height="93.12809169140833" width="395.52"><g><rect width="7.896252016919117" height="128.5192652429974" x="121.74114333537509" y="0" fill="#000000" opacity="1" stroke-width="0" stroke="transparent" fill-opacity="1" class="rect-qz-0" data-fill-palette-color="primary" rx="1%" id="qz-0" data-palette-color="#000000"></rect></g><g transform="matrix(1,0,0,1,150.30821215051176,0.31969966478356326)"><svg viewBox="0 0 395.52 127.87986591343027" height="127.87986591343027" width="395.52"><g id="textblocktransform"><svg viewBox="0 0 395.52 127.87986591343027" height="127.87986591343027" width="395.52" id="textblock"><g><svg viewBox="0 0 395.52 87.56000948091963" height="87.56000948091963" width="395.52"><g transform="matrix(1,0,0,1,0,0)"><svg width="395.52" viewBox="1.15 -35.5 210.93 46.7" height="87.56000948091963" data-palette-color="#000000"><path d="M11.4 0.5L11.4 0.5Q8.15 0.5 5.85-0.98 3.55-2.45 2.35-4.95 1.15-7.45 1.15-10.55L1.15-10.55Q1.15-13.7 2.33-16.57 3.5-19.45 5.65-21.7 7.8-23.95 10.68-25.25 13.55-26.55 16.95-26.55L16.95-26.55Q19.5-26.55 21.48-25.75 23.45-24.95 24.55-23.4 25.65-21.85 25.65-19.5L25.65-19.5Q25.65-15.55 22.15-13.5 18.65-11.45 11.4-11.45L11.4-11.45Q10.05-11.45 8.3-11.53 6.55-11.6 4.25-11.8L4.25-11.8 4.85-14.8Q7.05-14.7 8.63-14.6 10.2-14.5 11.55-14.5L11.55-14.5Q15.35-14.5 17.55-15.15 19.75-15.8 20.73-16.95 21.7-18.1 21.7-19.55L21.7-19.55Q21.7-20.85 21.08-21.65 20.45-22.45 19.33-22.85 18.2-23.25 16.65-23.25L16.65-23.25Q14.15-23.25 12.13-22.2 10.1-21.15 8.63-19.35 7.15-17.55 6.38-15.28 5.6-13 5.6-10.55L5.6-10.55Q5.6-8.5 6.3-6.73 7-4.95 8.45-3.88 9.9-2.8 12.1-2.8L12.1-2.8Q14.4-2.8 16.6-3.98 18.8-5.15 20.05-7.15L20.05-7.15 23.6-6.1Q22.4-4.2 20.45-2.7 18.5-1.2 16.18-0.35 13.85 0.5 11.4 0.5ZM27.65 0L35.2-35.45 39.7-35.45 32.15 0 27.65 0ZM40.55 0L48.09-35.5 59.84-35.5Q64.34-35.5 67.25-33.68 70.15-31.85 71.55-28.78 72.94-25.7 72.94-21.85L72.94-21.85Q72.94-17.15 71.4-13.15 69.84-9.15 67.07-6.2 64.3-3.25 60.52-1.63 56.75 0 52.3 0L52.3 0 40.55 0ZM45.9-4L53.15-4Q56.65-4 59.45-5.4 62.25-6.8 64.22-9.2 66.2-11.6 67.25-14.68 68.3-17.75 68.3-21.15L68.3-21.15Q68.3-24.2 67.25-26.53 66.2-28.85 64.15-30.18 62.09-31.5 59-31.5L59-31.5 51.75-31.5 45.9-4ZM75.14 0L82.69-35.45 87.19-35.45 82.99-15.85 104.24-35.5 109.14-35.5 92.34-19.85 102.34 0 97.39 0 88.99-17.25 81.94-10.85 79.64 0 75.14 0ZM115.04 0.5L115.04 0.5Q111.79 0.5 109.49-0.98 107.19-2.45 105.99-4.95 104.79-7.45 104.79-10.55L104.79-10.55Q104.79-13.7 105.97-16.57 107.14-19.45 109.29-21.7 111.44-23.95 114.32-25.25 117.19-26.55 120.59-26.55L120.59-26.55Q123.14-26.55 125.12-25.75 127.09-24.95 128.19-23.4 129.29-21.85 129.29-19.5L129.29-19.5Q129.29-15.55 125.79-13.5 122.29-11.45 115.04-11.45L115.04-11.45Q113.69-11.45 111.94-11.53 110.19-11.6 107.89-11.8L107.89-11.8 108.49-14.8Q110.69-14.7 112.27-14.6 113.84-14.5 115.19-14.5L115.19-14.5Q118.99-14.5 121.19-15.15 123.39-15.8 124.37-16.95 125.34-18.1 125.34-19.55L125.34-19.55Q125.34-20.85 124.72-21.65 124.09-22.45 122.97-22.85 121.84-23.25 120.29-23.25L120.29-23.25Q117.79-23.25 115.77-22.2 113.74-21.15 112.27-19.35 110.79-17.55 110.02-15.28 109.24-13 109.24-10.55L109.24-10.55Q109.24-8.5 109.94-6.73 110.64-4.95 112.09-3.88 113.54-2.8 115.74-2.8L115.74-2.8Q118.04-2.8 120.24-3.98 122.44-5.15 123.69-7.15L123.69-7.15 127.24-6.1Q126.04-4.2 124.09-2.7 122.14-1.2 119.82-0.35 117.49 0.5 115.04 0.5ZM130.84 0L136.39-26.1 140.39-26.1 139.19-20.5Q140.54-22.35 142.41-23.7 144.29-25.05 146.44-25.8 148.59-26.55 150.74-26.55L150.74-26.55Q152.84-26.55 154.09-25.78 155.34-25 155.89-23.63 156.44-22.25 156.44-20.4L156.44-20.4Q156.44-19.3 156.26-18.1 156.09-16.9 155.84-15.6L155.84-15.6 152.54 0 148.14 0 151.24-14.6Q151.49-15.7 151.59-16.63 151.69-17.55 151.69-18.35L151.69-18.35Q151.69-20.55 150.79-21.58 149.89-22.6 148.14-22.6L148.14-22.6Q146.49-22.6 144.64-21.7 142.79-20.8 141.19-19.28 139.59-17.75 138.59-15.75L138.59-15.75 135.24 0 130.84 0ZM157.24 11.2L156.64 7.65Q158.74 7.35 160.06 6.88 161.39 6.4 162.39 5.43 163.39 4.45 164.54 2.75L164.54 2.75 165.99 0.55 160.94-26.1 165.49-26.1 169.09-3.95 170.79-6.75Q172.89-10.2 174.34-12.8 175.79-15.4 176.81-17.57 177.84-19.75 178.54-21.8 179.24-23.85 179.84-26.1L179.84-26.1 184.19-26.1Q183.54-23.7 182.74-21.6 181.94-19.5 180.84-17.2 179.74-14.9 178.06-12.03 176.39-9.15 173.89-5.15L173.89-5.15 169.89 1.3Q168.19 4.05 166.69 5.93 165.19 7.8 163.71 8.95 162.24 10.1 160.66 10.63 159.09 11.15 157.24 11.2L157.24 11.2ZM193.58 0.5L193.58 0.5Q190.68 0.5 188.58-0.98 186.48-2.45 185.38-4.93 184.28-7.4 184.28-10.35L184.28-10.35Q184.28-13.5 185.46-16.4 186.63-19.3 188.66-21.58 190.68-23.85 193.28-25.2 195.88-26.55 198.73-26.55L198.73-26.55Q201.73-26.55 203.73-24.9 205.73-23.25 206.53-20.9L206.53-20.9 207.68-26.1 212.08-26.1 207.68-5.4Q207.63-5.2 207.61-5.05 207.58-4.9 207.58-4.75L207.58-4.75Q207.58-3.85 208.68-3.8L208.68-3.8 207.88 0Q207.33 0.05 206.91 0.13 206.48 0.2 206.13 0.2L206.13 0.2Q204.73 0.2 204.01-0.45 203.28-1.1 203.28-2.05L203.28-2.05Q203.28-2.35 203.33-2.75 203.38-3.15 203.48-3.7 203.58-4.25 203.73-4.9L203.73-4.9Q201.78-2.4 199.01-0.95 196.23 0.5 193.58 0.5ZM195.48-3.3L195.48-3.3Q196.58-3.3 197.86-3.75 199.13-4.2 200.36-5 201.58-5.8 202.58-6.88 203.58-7.95 204.08-9.15L204.08-9.15 205.63-16.65Q205.43-18.35 204.48-19.73 203.53-21.1 202.16-21.93 200.78-22.75 199.23-22.75L199.23-22.75Q197.13-22.75 195.28-21.73 193.43-20.7 192.01-19 190.58-17.3 189.76-15.23 188.93-13.15 188.93-11.05L188.93-11.05Q188.93-8.9 189.73-7.15 190.53-5.4 192.01-4.35 193.48-3.3 195.48-3.3Z" opacity="1" transform="matrix(1,0,0,1,0,0)" fill="#000000" class="wordmark-text-0" data-fill-palette-color="primary" id="text-0"></path></svg></g></svg></g><g transform="matrix(1,0,0,1,0,108.23082627913722)"><svg viewBox="0 0 259.26336 19.649039634293047" height="19.649039634293047" width="259.26336"><g transform="matrix(1,0,0,1,0,0)"><svg width="259.26336" viewBox="0.5 -36.5 623.38 47.25" height="19.649039634293047" data-palette-color="#ff0000"><path d="M23.35-33L28.1-33 16.3-12.9 16.3 0 12.3 0 12.3-12.9 0.5-33 5.25-33 11.65-21.7 14.3-17 16.95-21.7 23.35-33ZM43.6-25.5L43.6-25.5Q47.15-25.5 49.87-23.95 52.6-22.4 54.15-19.48 55.7-16.55 55.7-12.5L55.7-12.5Q55.7-8.45 54.15-5.53 52.6-2.6 49.87-1.05 47.15 0.5 43.6 0.5L43.6 0.5Q40.1 0.5 37.35-1.05 34.6-2.6 33.05-5.53 31.5-8.45 31.5-12.5L31.5-12.5Q31.5-16.55 33.05-19.48 34.6-22.4 37.35-23.95 40.1-25.5 43.6-25.5ZM43.6-22.05L43.6-22.05Q41.05-22.05 39.25-20.9 37.45-19.75 36.47-17.63 35.5-15.5 35.5-12.5L35.5-12.5Q35.5-9.55 36.47-7.4 37.45-5.25 39.25-4.1 41.05-2.95 43.6-2.95L43.6-2.95Q46.15-2.95 47.95-4.1 49.75-5.25 50.72-7.4 51.7-9.55 51.7-12.5L51.7-12.5Q51.7-15.5 50.72-17.63 49.75-19.75 47.95-20.9 46.15-22.05 43.6-22.05ZM72.3 0.5L72.3 0.5Q69.89 0.5 67.77-0.4 65.64-1.3 64.32-3.33 62.99-5.35 62.99-8.6L62.99-8.6 62.99-25 67-25 67-9.65Q67-5.85 68.64-4.42 70.3-3 73.3-3L73.3-3Q74.69-3 76.05-3.48 77.39-3.95 78.47-4.98 79.55-6 80.17-7.6 80.8-9.2 80.8-11.4L80.8-11.4 80.8-25 84.8-25 84.8 0 81.3 0 81.05-3.8Q79.75-1.55 77.52-0.53 75.3 0.5 72.3 0.5ZM98.09 0L94.09 0 94.09-25 97.34-25 97.89-20.9Q98.94-23.2 100.97-24.35 102.99-25.5 105.89-25.5L105.89-25.5Q106.54-25.5 107.32-25.4 108.09-25.3 108.64-25L108.64-25 107.94-21.35Q107.39-21.55 106.74-21.65 106.09-21.75 104.89-21.75L104.89-21.75Q103.34-21.75 101.77-20.85 100.19-19.95 99.14-18.13 98.09-16.3 98.09-13.5L98.09-13.5 98.09 0ZM132.29-33L136.29-33 136.29 0 132.29 0 132.29-33ZM156.09 0.5L156.09 0.5Q152.99 0.5 150.38-1.05 147.78-2.6 146.24-5.53 144.69-8.45 144.69-12.5L144.69-12.5Q144.69-16.65 146.34-19.55 147.99-22.45 150.69-23.98 153.38-25.5 156.49-25.5L156.49-25.5Q159.59-25.5 161.86-23.9 164.13-22.3 164.88-19.65L164.88-19.65 164.38-19.3 164.38-36.5 168.38-36.5 168.38 0 164.88 0 164.53-6.05 165.09-6.35Q164.74-4.15 163.41-2.63 162.09-1.1 160.16-0.3 158.24 0.5 156.09 0.5ZM156.49-3L156.49-3Q158.88-3 160.66-4.2 162.44-5.4 163.41-7.63 164.38-9.85 164.38-12.85L164.38-12.85Q164.38-15.7 163.41-17.75 162.44-19.8 160.71-20.9 158.99-22 156.69-22L156.69-22Q152.88-22 150.78-19.4 148.69-16.8 148.69-12.5L148.69-12.5Q148.69-8.2 150.74-5.6 152.78-3 156.49-3ZM188.13 0.5L188.13 0.5Q184.58 0.5 181.81-1.05 179.03-2.6 177.48-5.53 175.93-8.45 175.93-12.5L175.93-12.5Q175.93-16.55 177.48-19.48 179.03-22.4 181.73-23.95 184.43-25.5 187.88-25.5L187.88-25.5Q191.38-25.5 193.86-24 196.33-22.5 197.63-19.93 198.93-17.35 198.93-14.15L198.93-14.15Q198.93-13.3 198.88-12.6 198.83-11.9 198.73-11.35L198.73-11.35 178.53-11.35 178.53-14.9 196.98-14.9 194.93-14.5Q194.93-18.1 192.96-20.05 190.98-22 187.78-22L187.78-22Q185.33-22 183.56-20.88 181.78-19.75 180.81-17.63 179.83-15.5 179.83-12.5L179.83-12.5Q179.83-9.55 180.83-7.4 181.83-5.25 183.66-4.13 185.48-3 188.03-3L188.03-3Q190.78-3 192.51-4.05 194.23-5.1 195.28-6.9L195.28-6.9 198.43-5.05Q197.48-3.35 196.01-2.1 194.53-0.85 192.56-0.18 190.58 0.5 188.13 0.5ZM210.53 0L206.53 0 206.53-25 210.03-25 210.38-19.4 209.73-19.95Q210.53-21.95 211.88-23.18 213.23-24.4 215-24.95 216.78-25.5 218.68-25.5L218.68-25.5Q221.38-25.5 223.58-24.48 225.78-23.45 227.1-21.35 228.43-19.25 228.43-16L228.43-16 228.43 0 224.43 0 224.43-14.6Q224.43-18.75 222.66-20.38 220.88-22 218.28-22L218.28-22Q216.48-22 214.68-21.15 212.88-20.3 211.7-18.4 210.53-16.5 210.53-13.3L210.53-13.3 210.53 0ZM239.38-31L243.38-32.1 243.38-6.9Q243.38-5.05 244.43-4.15 245.48-3.25 247.13-3.25L247.13-3.25Q248.58-3.25 249.63-3.75 250.68-4.25 251.53-5.1L251.53-5.1 252.93-1.75Q251.78-0.7 250.2-0.1 248.63 0.5 246.58 0.5L246.58 0.5Q244.68 0.5 243.03-0.18 241.38-0.85 240.4-2.33 239.43-3.8 239.38-6.2L239.38-6.2 239.38-31ZM234.38-25L252.48-25 252.48-21.55 234.38-21.55 234.38-25ZM260.42-29.8L260.42-29.8Q259.07-29.8 258.25-30.63 257.42-31.45 257.42-32.8L257.42-32.8Q257.42-34.15 258.25-34.98 259.07-35.8 260.42-35.8L260.42-35.8Q261.77-35.8 262.6-34.98 263.42-34.15 263.42-32.8L263.42-32.8Q263.42-31.45 262.6-30.63 261.77-29.8 260.42-29.8ZM258.42-25L262.42-25 262.42 0 258.42 0 258.42-25ZM273.62-31L277.62-32.1 277.62-6.9Q277.62-5.05 278.67-4.15 279.72-3.25 281.37-3.25L281.37-3.25Q282.82-3.25 283.87-3.75 284.92-4.25 285.77-5.1L285.77-5.1 287.17-1.75Q286.02-0.7 284.45-0.1 282.87 0.5 280.82 0.5L280.82 0.5Q278.92 0.5 277.27-0.18 275.62-0.85 274.65-2.33 273.67-3.8 273.62-6.2L273.62-6.2 273.62-31ZM268.62-25L286.72-25 286.72-21.55 268.62-21.55 268.62-25ZM308.92-25L313.22-25 301.47 4.2Q300.52 6.65 299.39 8.08 298.27 9.5 296.89 10.13 295.52 10.75 293.72 10.75L293.72 10.75Q292.02 10.75 290.59 10.28 289.17 9.8 288.07 9L288.07 9 289.17 5.5Q290.17 6.4 291.29 6.83 292.42 7.25 293.52 7.25L293.52 7.25Q294.82 7.25 295.97 6.45 297.12 5.65 298.07 3.2L298.07 3.2 299.37-0.05 296.87-6 288.92-25 293.47-25 299.72-8.7 301.27-4.25 303.07-9.2 308.92-25ZM320.47-6L320.47-6Q321.67-6 322.49-5.38 323.32-4.75 323.77-3.68 324.22-2.6 324.22-1.15L324.22-1.15Q324.22 0.5 323.64 2.1 323.07 3.7 321.87 5.05 320.67 6.4 318.77 7.3L318.77 7.3 316.67 5.35Q318.02 4.9 319.04 4.1 320.07 3.3 320.72 2.3 321.37 1.3 321.57 0.25L321.57 0.25 321.37 0.15Q321.17 0.3 320.87 0.4 320.57 0.5 319.97 0.5L319.97 0.5Q319.37 0.5 318.74 0.15 318.12-0.2 317.67-0.88 317.22-1.55 317.22-2.65L317.22-2.65Q317.22-3.55 317.67-4.33 318.12-5.1 318.84-5.55 319.57-6 320.47-6ZM362.86-33.5L362.86-33.5Q367.56-33.5 370.99-31.43 374.41-29.35 376.29-25.55 378.16-21.75 378.16-16.5L378.16-16.5Q378.16-11.25 376.29-7.45 374.41-3.65 370.99-1.58 367.56 0.5 362.86 0.5L362.86 0.5Q358.16 0.5 354.74-1.58 351.31-3.65 349.44-7.45 347.56-11.25 347.56-16.5L347.56-16.5Q347.56-21.75 349.44-25.55 351.31-29.35 354.74-31.43 358.16-33.5 362.86-33.5ZM362.86-29.75L362.86-29.75Q359.46-29.75 356.96-28.18 354.46-26.6 353.11-23.63 351.76-20.65 351.76-16.5L351.76-16.5Q351.76-12.35 353.11-9.38 354.46-6.4 356.96-4.83 359.46-3.25 362.86-3.25L362.86-3.25Q366.31-3.25 368.79-4.83 371.26-6.4 372.61-9.38 373.96-12.35 373.96-16.5L373.96-16.5Q373.96-20.65 372.61-23.63 371.26-26.6 368.79-28.18 366.31-29.75 362.86-29.75ZM395.26 0.5L395.26 0.5Q392.86 0.5 390.74-0.4 388.61-1.3 387.29-3.33 385.96-5.35 385.96-8.6L385.96-8.6 385.96-25 389.96-25 389.96-9.65Q389.96-5.85 391.61-4.42 393.26-3 396.26-3L396.26-3Q397.66-3 399.01-3.48 400.36-3.95 401.44-4.98 402.51-6 403.13-7.6 403.76-9.2 403.76-11.4L403.76-11.4 403.76-25 407.76-25 407.76 0 404.26 0 404.01-3.8Q402.71-1.55 400.49-0.53 398.26 0.5 395.26 0.5ZM421.06 0L417.06 0 417.06-25 420.31-25 420.86-20.9Q421.91-23.2 423.93-24.35 425.96-25.5 428.86-25.5L428.86-25.5Q429.51-25.5 430.28-25.4 431.06-25.3 431.61-25L431.61-25 430.91-21.35Q430.36-21.55 429.71-21.65 429.06-21.75 427.86-21.75L427.86-21.75Q426.31-21.75 424.73-20.85 423.16-19.95 422.11-18.13 421.06-16.3 421.06-13.5L421.06-13.5 421.06 0ZM455.25-33L466.9-33Q470.25-33 472.73-31.78 475.2-30.55 476.6-28.3 478-26.05 478-22.95L478-22.95Q478-19.85 476.6-17.6 475.2-15.35 472.73-14.13 470.25-12.9 466.9-12.9L466.9-12.9 459.25-12.9 459.25 0 455.25 0 455.25-33ZM459.25-16.65L466.3-16.65Q470.2-16.65 472-18.28 473.8-19.9 473.8-22.95L473.8-22.95Q473.8-26.05 472-27.65 470.2-29.25 466.3-29.25L466.3-29.25 459.25-29.25 459.25-16.65ZM489 0L485 0 485-25 488.25-25 488.8-20.9Q489.85-23.2 491.88-24.35 493.9-25.5 496.8-25.5L496.8-25.5Q497.45-25.5 498.23-25.4 499-25.3 499.55-25L499.55-25 498.85-21.35Q498.3-21.55 497.65-21.65 497-21.75 495.8-21.75L495.8-21.75Q494.25-21.75 492.68-20.85 491.1-19.95 490.05-18.13 489-16.3 489-13.5L489-13.5 489 0ZM507.4-29.8L507.4-29.8Q506.05-29.8 505.22-30.63 504.4-31.45 504.4-32.8L504.4-32.8Q504.4-34.15 505.22-34.98 506.05-35.8 507.4-35.8L507.4-35.8Q508.75-35.8 509.57-34.98 510.4-34.15 510.4-32.8L510.4-32.8Q510.4-31.45 509.57-30.63 508.75-29.8 507.4-29.8ZM505.4-25L509.4-25 509.4 0 505.4 0 505.4-25ZM529.04-25.5L529.04-25.5Q532.59-25.5 535.32-23.95 538.04-22.4 539.59-19.48 541.14-16.55 541.14-12.5L541.14-12.5Q541.14-8.45 539.59-5.53 538.04-2.6 535.32-1.05 532.59 0.5 529.04 0.5L529.04 0.5Q525.54 0.5 522.79-1.05 520.04-2.6 518.5-5.53 516.94-8.45 516.94-12.5L516.94-12.5Q516.94-16.55 518.5-19.48 520.04-22.4 522.79-23.95 525.54-25.5 529.04-25.5ZM529.04-22.05L529.04-22.05Q526.5-22.05 524.69-20.9 522.89-19.75 521.92-17.63 520.94-15.5 520.94-12.5L520.94-12.5Q520.94-9.55 521.92-7.4 522.89-5.25 524.69-4.1 526.5-2.95 529.04-2.95L529.04-2.95Q531.59-2.95 533.39-4.1 535.19-5.25 536.17-7.4 537.14-9.55 537.14-12.5L537.14-12.5Q537.14-15.5 536.17-17.63 535.19-19.75 533.39-20.9 531.59-22.05 529.04-22.05ZM552.69 0L548.69 0 548.69-25 551.94-25 552.49-20.9Q553.54-23.2 555.57-24.35 557.59-25.5 560.49-25.5L560.49-25.5Q561.14-25.5 561.92-25.4 562.69-25.3 563.24-25L563.24-25 562.54-21.35Q561.99-21.55 561.34-21.65 560.69-21.75 559.49-21.75L559.49-21.75Q557.94-21.75 556.37-20.85 554.79-19.95 553.74-18.13 552.69-16.3 552.69-13.5L552.69-13.5 552.69 0ZM571.09-29.8L571.09-29.8Q569.74-29.8 568.91-30.63 568.09-31.45 568.09-32.8L568.09-32.8Q568.09-34.15 568.91-34.98 569.74-35.8 571.09-35.8L571.09-35.8Q572.44-35.8 573.26-34.98 574.09-34.15 574.09-32.8L574.09-32.8Q574.09-31.45 573.26-30.63 572.44-29.8 571.09-29.8ZM569.09-25L573.09-25 573.09 0 569.09 0 569.09-25ZM584.29-31L588.29-32.1 588.29-6.9Q588.29-5.05 589.34-4.15 590.39-3.25 592.04-3.25L592.04-3.25Q593.49-3.25 594.54-3.75 595.59-4.25 596.44-5.1L596.44-5.1 597.84-1.75Q596.69-0.7 595.11-0.1 593.54 0.5 591.49 0.5L591.49 0.5Q589.59 0.5 587.94-0.18 586.29-0.85 585.31-2.33 584.34-3.8 584.29-6.2L584.29-6.2 584.29-31ZM579.29-25L597.39-25 597.39-21.55 579.29-21.55 579.29-25ZM619.58-25L623.88-25 612.13 4.2Q611.18 6.65 610.06 8.08 608.93 9.5 607.56 10.13 606.18 10.75 604.38 10.75L604.38 10.75Q602.68 10.75 601.26 10.28 599.83 9.8 598.73 9L598.73 9 599.83 5.5Q600.83 6.4 601.96 6.83 603.08 7.25 604.18 7.25L604.18 7.25Q605.48 7.25 606.63 6.45 607.78 5.65 608.73 3.2L608.73 3.2 610.03-0.05 607.53-6 599.58-25 604.13-25 610.38-8.7 611.93-4.25 613.73-9.2 619.58-25Z" opacity="1" transform="matrix(1,0,0,1,0,0)" fill="#000000" class="slogan-text-1" data-fill-palette-color="secondary" id="text-1"></path></svg></g></svg></g></svg></g></svg></g><g transform="matrix(1,0,0,1,0,0.31969966478356326)"><svg viewBox="0 0 101.0703265371575 127.87986591343027" height="127.87986591343027" width="101.0703265371575"><g><svg xmlns="http://www.w3.org/2000/svg" xmlns:xlink="http://www.w3.org/1999/xlink" version="1.1" x="0" y="0" viewBox="10.482999999999988 0 79.033 99.99699999999997" enable-background="new 10 0 80 100" xml:space="preserve" height="127.87986591343027" width="101.0703265371575" class="icon-icon-0" data-fill-palette-color="accent" id="icon-0"><path d="M81.986 74.128l-0.297-0.097-0.267-0.021-0.116 0.134-0.086 0.198-0.201 0.101-0.234 0.072-0.182 0.099-0.131 0.222-0.121 0.313v0.222l0.219-0.048 0.02 0.121 0.045 0.097 0.078 0.062h0.121l0.037-0.104-0.076-0.065-0.105-0.066-0.051-0.07 0.025-0.139 0.066-0.086 0.088-0.012 0.088 0.065 0.369-0.192 0.178-0.061 0.129-0.016 0.012 0.021 0.033 0.043 0.055 0.048 0.07 0.019 0.059-0.012 0.027-0.024 0.02-0.022 0.031-0.013 0.062-0.031 0.036-0.082 0.019-0.116-0.01-0.106 0.133 0.217 0.185-0.037 0.071-0.202-0.192-0.313L81.986 74.128zM89.033 15.198l-0.441-0.091-0.436-0.229-0.469-0.15-0.42 0.242L87.125 15l-0.141-0.025-0.262-0.107-0.156-0.013-0.793 0.192-0.26 0.019-0.498 0.139-1.109 0.061-1.01 0.06-0.517-0.06L81.9 15.074l-0.439-0.344-0.633-0.882-0.26-0.24L80.41 13.51l-0.473-0.155-0.183-0.091-0.103-0.102-0.163-0.307-0.242-0.274-0.597-0.404-0.221-0.281-0.623 0.408-0.82 0.313-1.045 0.395-1.276 0.493-0.058 0.056-0.059 0.155-0.053 0.048-0.779 0.271-1.002 0.348h-0.029l-0.028-0.006-0.027-0.018-0.096-0.006-0.009 0.035 0.007 0.061-0.046 0.06-0.446 0.222-0.959 0.464L70.23 15.6l-0.849 0.403-0.196 0.246-0.195 0.516-0.275 0.72-0.164 0.307-0.189 0.246-0.774 0.71-0.649 0.587-0.256 0.307-0.216 0.655L66.3 20.554l-0.315 0.019-0.158-0.107-0.074-0.126-0.051-0.139-0.088-0.107-0.303-0.102-1.236-0.037 0.092-0.18-0.047-0.102-0.127-0.013-0.447 0.259-0.377 0.013-0.385-0.085-1.018-0.464-0.097-0.022-0.567 0.12h-0.154l-0.146-0.054L60.633 19.4l-0.416 0.079-0.258 0.006-0.736-0.198-0.975-0.266-0.18-0.095-0.156-0.157-0.268-0.348 0.006 0.06-0.017 0.139 0.003 0.073-0.576-0.044-0.054-0.035-0.01-0.054-0.021-0.031-0.141 0.056-0.053 0.005-0.129-0.011-0.137-0.037-0.041-0.061-0.019-0.078-0.082-0.089-0.187-0.157-0.053-0.023-0.094 0.042-0.021 0.079 0.008 0.088L56.02 18.4l-0.506 0.221-0.553 0.048-1.057-0.12-1.051-0.119-0.31 0.024L52.23 18.53l-0.119-0.017-0.229-0.198-0.295-0.091-0.127-0.07-0.152-0.181-0.254-0.397-0.181-0.186-0.304-0.192-0.987-0.631-0.94-0.606-1.021-0.647-0.906-0.584-0.801-0.509-1.128-0.727-0.964-0.612-0.965-0.619-0.533-0.343-0.059-0.017-0.061 0.006-0.051-0.013-0.031-0.054-0.053-0.224-0.036-0.089-0.066-0.091-0.075-0.022-0.197 0.01-0.07-0.041-0.157-0.265-0.096-0.07-0.403-0.092-0.703-0.354-0.59-0.163-1.905 0.019-0.083-0.023-0.147-0.084-0.084-0.019-1.546 0.03-1.838 0.035-0.128-0.019-0.18-0.082-0.098-0.031-0.104 0.006-0.342 0.044-1.483 0.01-0.226-0.054-0.209-0.132-0.385-0.336L30.74 9.698l-0.06-0.144 0.004-0.161 0.029-0.199-0.009-0.192-0.132-0.233L30.554 8.6l-0.9-0.949-0.446-0.48-0.244-0.408L28.88 6.286V6.28l0.041-2.059 0.05-0.126 0.381-0.475 0.078-0.198V3.218l-0.089-0.24-0.196-0.372-0.029-0.19 0.066-0.229 0.268-0.383-0.048-0.091L28.86 1.5l-0.65-0.395-0.252-0.066L27.775 1.08l-0.178 0.079-0.233 0.054-0.24-0.066-0.426-0.342-0.226-0.132-0.177-0.048-0.207-0.024h-0.209l-0.178 0.037L25.487 0.78l-0.403 0.438L24.86 1.374l-0.238 0.037L24.44 1.32l-0.149-0.161-0.322-0.512L23.93 0.558l0.01-0.126 0.07-0.102 0.087-0.104 0.058-0.113L24.113 0l-0.549 0.534L23.016 1.07l-0.551 0.54-0.546 0.54-0.55 0.533L20.82 3.217 20.273 3.76l-0.551 0.534-0.549 0.54-0.548 0.533L18.077 5.91l-0.55 0.533-0.549 0.54-0.55 0.534-0.547 0.534-0.55 0.542-0.997 0.984-1 0.983-0.999 0.984-0.997 0.991 0.285 0.139 0.224 0.174 0.122 0.228-0.015 0.303 0.012 0.13 0.09 0.109 0.109 0.102 0.083 0.114 0.028 0.113 0.005 0.114-0.029 0.229-0.037 0.137-0.044 0.091-0.004 0.102 0.077 0.157 0.12 0.107 0.143 0.095 0.113 0.114 0.025 0.163-0.104 0.253-0.127 0.228L12.4 15.905l0.229 0.084 0.155-0.03 0.393-0.144 0.19 0.007 0.22 0.113 0.024 0.133-0.107 0.13-0.472 0.247 0.021 0.056 0.153 0.054 0.124 0.148-0.196 0.127-0.064 0.078 0.124 0.048 0.083-0.007 0.172-0.047 0.194-0.013 0.196-0.054 0.104-0.006 0.007 0.047 0.221 0.284 0.149 0.395 0.113 0.061 0.046-0.035 0.043-0.098 0.104-0.095 0.27-0.079 0.178 0.072 0.318 0.344 0.187 0.096 0.187 0.054 0.145 0.097 0.066 0.203-0.024 0.792-0.094 0.392-0.188 0.287-0.091 0.048-0.102 0.024-0.089 0.042-0.056 0.085 0.006 0.107 0.124 0.211 0.042 0.107-0.017 0.096-0.1 0.239-0.029 0.11 0.025 0.12 0.078 0.102 0.092 0.101 0.074 0.11 0.126 0.389 0.098 1.208 0.107 0.228 0.207 0.133 0.468 0.133 0.207 0.13 0.115 0.211 0.285 1.49 0.1 0.167 0.314 0.348 0.149 0.234 0.089 0.091 0.135 0.035 0.062-0.017 0.112-0.091 0.039-0.019 0.025-0.017 0.043-0.079 0.024-0.019 0.038 0.019 0.022 0.035 0.017 0.037 0.019 0.018 0.019 0.024 0.279 0.132 0.054 0.013 0.066 0.083 0.039 0.091 0.201 0.619 0.15 0.853 0.416 0.864 0.096 0.089 0.134 0.007 0.081-0.072 0.066-0.077 0.089-0.019 0.099 0.139 0.057 0.486 0.058 0.187 0.269 0.275 0.092 0.167-0.027 0.224-0.146 0.174-0.199 0.113-0.178 0.139-0.087 0.24 0.064 0.392 0.561 1.345 0.447 1.067v0.187l-0.094 0.438-0.014 0.192 0.012 0.203 0.041 0.198 0.071 0.168 0.087 0.104 0.231 0.215 0.05 0.114-0.037 0.104-0.185 0.233-0.044 0.12-0.01 1.91-0.061 0.209-0.313 0.662-0.071 0.113-0.1 0.089-0.1 0.048-0.207 0.044-0.1 0.047-0.227 0.338-0.209 0.792-0.588 0.48 0.037 0.348 0.172 0.401 0.104 0.391-0.125 0.397-0.313 0.143-0.815 0.085-0.205 0.12-0.337 0.325-0.48 0.107-0.066 0.18-0.017 0.222-0.107 0.18-0.207 0.038-0.159-0.092-0.163-0.035-0.203 0.199-0.098 0.174-0.082 0.196-0.052 0.211-0.005 0.438-0.058 0.205-0.259 0.629-0.283 0.366-0.14 0.399-0.17 0.148-0.636 0.319-0.08 0.085-0.061 0.348-0.161 0.426-0.235 0.253-0.321 0.161-0.401 0.145-0.292 0.199-0.169 0.3-0.249 1.004-0.028 0.082-0.07 0.104-0.17 0.203-0.046 0.091 0.013 0.18 0.112 0.354-0.029 0.206-0.085 0.127-0.356 0.274-0.879 1.164-0.575 0.765-0.029 0.189 0.307 1.01 0.307 1.01 0.01 0.384-0.182 1.557-0.234 2.022-0.165 1.412 0.037 1.338 0.058 1.998h0.754l0.038-0.006 0.153 0.006 0.019 0.26 0.135 0.085 0.366 0.028 0.741 0.41 2.123 1.176 2.122 1.178 2.123 1.177 2.123 1.179 2.123 1.181 2.121 1.178 2.121 1.179 2.123 1.176 2.123 1.177 2.119 1.177 2.122 1.178 2.123 1.185 2.123 1.175 2.123 1.178 2.123 1.178 2.123 1.185 0.814 0.448 0.153 0.24 0.173 1.069 0.221 1.332-0.182 0.013-0.097 0.086-0.035 0.135 0.015 0.177L47.66 87l-0.236 0.126L47.203 87.3l-0.143 0.164-0.051 0.082-0.05 0.116-0.024 0.113 0.018 0.103 0.07 0.071 0.16 0.02 0.053 0.076-0.039 0.164L47.118 88.4l0.028 0.137 0.473-0.028 0.211 0.017 0.209 0.057 0.188 0.089 0.137 0.126 0.074 0.157 0.172 0.606 0.1 0.195 0.135 0.182 0.54 0.385 0.845 0.6 0.842 0.605 0.845 0.608 0.844 0.606 0.845 0.6 0.846 0.606 0.842 0.606 0.846 0.605 0.842 0.6 0.845 0.606 0.846 0.608 0.843 0.605 0.844 0.605 0.844 0.601 0.846 0.606 0.84 0.607 0.031-0.04 0.033-0.013 0.035-0.008 0.041-0.013 0.192-0.143 0.185-0.277 0.211-0.204 0.289 0.084 0.059-0.145 0.01-0.055 0.238 0.291 0.377 0.095 0.33-0.054 0.1-0.134-0.152-0.215-0.021-0.085 0.029-0.138 0.063-0.007 0.067 0.037 0.049 0.006 0.08-0.15 0.06-0.148 0.072-0.14 0.127-0.103 0.036 0.144-0.032 0.288 0.063 0.184 0.338-1.018L65.826 98l0.141-0.127 0.031-0.061-0.008-0.119L66 97.643l0.082-0.109 0.084-0.09 0.088-0.006 0.086 0.133 0.109-0.283 0.326-1.207 0.313-0.805 0.496-0.84 0.037-0.24-0.195-0.18-0.348-0.103-0.326 0.022-0.146 0.192-0.041-0.103-0.021-0.098-0.004-0.209 0.037-0.066 0.088-0.012 0.11 0.006h0.103l0.31-0.071 0.094-0.079 0.074-0.18-0.262-0.061-0.117-0.049-0.099-0.09 0.109-0.09 0.114 0.019 0.252 0.138 0.174-0.144 0.015 0.133L67.523 93.4l0.067 0.121 0.076 0.054 0.065 0.221 0.097 0.056 0.086-0.049 0.088-0.106 0.07-0.12 0.024-0.09 0.033-0.065 0.209-0.235 0.025-0.168L68.26 92.97l-0.219 0.013-0.1-0.092-0.045-0.088-0.033-0.092-0.066-0.102-0.037-0.099 0.063-0.075 0.219-0.121L68.04 92.65l0.201 0.151 0.28-0.051 0.254-0.24 0.798-2.19 0.021-0.307-0.025-0.147-0.063-0.151-0.108-0.078-0.345 0.139-0.139-0.041-0.041-0.114 0.119-0.146L68.79 89.48l-0.117-0.09-0.026-0.148 0.074-0.182 0.104 0.084-0.008 0.037-0.039 0.088 0.264 0.02 0.047 0.013 0.131 0.144 0.045 0.031 0.215 0.096 0.086-0.018 0.123-0.113 0.113-0.229 0.104-0.563 0.267-0.422 0.203-0.527 0.174-0.281-0.021-0.061L70.486 87.3l-0.016-0.054 0.057-0.239 0.008-0.09v-0.14l0.018-0.131 0.078-0.097 0.176-0.043-0.018 0.14-0.107 0.371-0.078 0.168 0.176-0.028 0.134-0.104 0.239-0.275 0.13-0.088 0.477-0.217 0.144-0.092 0.113-0.12 0.088-0.143 0.061-0.151 0.004-0.187-0.107-0.354 0.006-0.133 0.338-0.479 0.063-0.168 0.041-0.498 0.056-0.121 0.205-0.276 0.35-0.323 0.076-0.119-0.01-0.109-0.203 0.15-0.207 0.024-0.121-0.116 0.055-0.263-0.211-0.157 0.025-0.316 0.186-0.631 0.01-0.084 0.035-0.148-0.01-0.066-0.146-0.199-0.02-0.071 0.043-0.169 0.295-0.365 0.182-0.414 0.088-0.139 0.115-0.119 0.494-0.397 0.291-0.181 0.248-0.076 0.41-0.296 1.002-0.313 0.322-0.035 0.313 0.072 0.295 0.133 0.302 0.066 0.344-0.126 0.604-0.717 0.459-0.19 0.31-0.217 0.27-0.271 0.117-0.228-0.066-0.138-0.281-0.182-0.063-0.143 0.066-0.109 0.018-0.063-0.047-0.024-0.082-0.031-0.053-0.069-0.027-0.093-0.004-0.084 0.203 0.109 0.207-0.18 0.223-0.266 0.25-0.133 0.141-0.028 0.07-0.025-0.014-0.019 0.102 0.037 0.008 0.041-0.014 0.049 0.039 0.078 0.238 0.252 0.137 0.09 0.172 0.06-0.322 0.164 0.029 0.107 0.221-0.041 0.244-0.302 0.111-0.252-0.016-0.108-0.096-0.138-0.125-0.092-0.121-0.006-0.109 0.02-0.088-0.031-0.123-0.246-0.063-0.376-0.019-0.724-0.031-0.06-0.071-0.017-0.072-0.024-0.031-0.096 0.021-0.056 0.092-0.055 0.021-0.066-0.03-0.154-0.086-0.114-0.129-0.03-0.158 0.065 0.024-0.12-0.028-0.132-0.064-0.149 0.119-0.139 0.092 0.038 0.09 0.106 0.104 0.055 0.181 0.139 0.187 0.606 0.182 0.136 0.211-0.263 0.041-1.152 0.35-0.271-0.148 0.221-0.041 0.12 0.025 0.139 0.006 0.113-0.096 0.278-0.01 0.143 0.043 0.145 0.064 0.092 0.092 0.065 0.133 0.063 0.156 0.013 0.104-0.113 0.104-0.133 0.268-0.106 0.195-0.215 0.123-0.08 0.084 0.008 0.387 0.095 0.287 0.024 0.092-0.228L82.74 73.1l0.199-0.203 0.012 0.211 0.109 0.112 0.172 0.02 0.186-0.072 0.15 0.187 0.205-0.127 0.354-0.426 0.563-0.51 0.213-0.132 0.048-0.175 0.356-0.535 0.752-0.768 0.033-0.818-0.033-0.186-0.119-0.216-0.381-0.492-0.496-0.638-0.502-0.635-0.508-0.656-0.484-0.625-0.452-0.581-0.546-0.696-0.506-0.654-0.491-0.625-0.248-0.322-0.252-0.325-0.253-0.323-0.252-0.326-0.01-0.742-0.008-0.69-0.01-0.696-0.016-1.063-0.012-1.07-0.017-1.063-0.015-1.067-0.008-0.66-0.008-0.661-0.014-0.804v-24.56l-0.012-1.328-0.012-1.267-0.005-0.523 0.142-0.275 0.338-0.331 0.813-0.799 0.814-0.799 0.811-0.802 0.814-0.799 0.51-0.729 0.512-0.727 0.512-0.732 0.511-0.727 0.829-1.181 0.83-1.178 0.83-1.184 0.828-1.184L89.033 15.198z" fill="#000000" data-fill-palette-color="accent"></path></svg></g></svg></g></svg></g><defs></defs></svg><rect width="395.52" height="93.12809169140833" fill="none" stroke="none" visibility="hidden"></rect></g></svg></g></svg>